<mxfile host="app.diagrams.net" modified="2023-06-02T17:48:29.628Z" agent="Mozilla/5.0 (Windows NT 10.0; Win64; x64) AppleWebKit/537.36 (KHTML, like Gecko) Chrome/113.0.0.0 Safari/537.36" etag="6oWOZDxNL4t60kpnuENX" version="21.3.6" type="device">
  <diagram name="PÃ¡gina-1" id="-_utQNLpoWmJeOG_uXhF">
    <mxGraphModel dx="1434" dy="796" grid="1" gridSize="10" guides="1" tooltips="1" connect="1" arrows="1" fold="1" page="1" pageScale="1" pageWidth="827" pageHeight="1169" math="0" shadow="0">
      <root>
        <mxCell id="0" />
        <mxCell id="1" parent="0" />
        <mxCell id="KZcpWeQ2D4AYw7FhIxnc-3" value="" style="edgeStyle=orthogonalEdgeStyle;rounded=0;orthogonalLoop=1;jettySize=auto;html=1;" edge="1" parent="1" source="KZcpWeQ2D4AYw7FhIxnc-1" target="KZcpWeQ2D4AYw7FhIxnc-2">
          <mxGeometry relative="1" as="geometry" />
        </mxCell>
        <mxCell id="KZcpWeQ2D4AYw7FhIxnc-1" value="INICIO" style="ellipse;whiteSpace=wrap;html=1;" vertex="1" parent="1">
          <mxGeometry x="360" y="40" width="120" height="80" as="geometry" />
        </mxCell>
        <mxCell id="KZcpWeQ2D4AYw7FhIxnc-2" value="numero_lapices(int)" style="rounded=0;whiteSpace=wrap;html=1;" vertex="1" parent="1">
          <mxGeometry x="320" y="160" width="200" height="110" as="geometry" />
        </mxCell>
      </root>
    </mxGraphModel>
  </diagram>
</mxfile>
